ffmpeg started on 2025-06-23 at 21:00:48
Report written to "D:\Convert\FFMetrics\reports\psnr_report-6.txt"
Log level: 32
Command line:
ffmpeg -hide_banner -nostdin -i "G:\\\xc0\xed\xe8\xec\xe5\\[\xd2\xee\xef-4]\\\xcc\xee\xe6\xe5\xf2, \xff \xe2\xf1\xf2\xf0\xe5\xf7\xf3 \xf2\xe5\xe1\xff \xe2 \xef\xee\xe4\xe7\xe5\xec\xe5\xeb\xfc\xe5\\\xd2\xc2-2\\Danmachi_Sword_Oratoria_[02]_[AniLibria_TV]_[HDTV-Rip]_HEVC.mkv" -i "G:\\\xc0\xed\xe8\xec\xe5\\[\xd2\xee\xef-4]\\\xcc\xee\xe6\xe5\xf2, \xff \xe2\xf1\xf2\xf0\xe5\xf7\xf3 \xf2\xe5\xe1\xff \xe2 \xef\xee\xe4\xe7\xe5\xec\xe5\xeb\xfc\xe5\\\xd2\xc2-2\\Danmachi_Sword_Oratoria_[02]_[AniLibria_TV]_[HDTV-Rip].mkv" -lavfi "[0:v]settb=AVTB,setpts=PTS-STARTPTS,format=pix_fmts=yuv420p10,fps=24000/1001,scale=1280:720:flags=bicubic[main];[1:v]settb=AVTB,setpts=PTS-STARTPTS,format=pix_fmts=yuv420p,fps=24000/1001,scale=1280:720:flags=bicubic[ref];[main][ref]psnr=eof_action=endall:stats_file='D\\:/Convert/FFMetrics/logs/psnr_logfile-6.txt'" -f null -
Input #0, matroska,webm, from 'G:\Аниме\[Топ-4]\Может, я встречу тебя в подземелье\ТВ-2\Danmachi_Sword_Oratoria_[02]_[AniLibria_TV]_[HDTV-Rip]_HEVC.mkv':
  Metadata:
    ENCODER         : Lavf61.7.100
  Duration: 00:24:00.06, start: -0.021000, bitrate: 685 kb/s
  Chapters:
    Chapter #0:0: start 0.000000, end 146.000000
      Metadata:
        title           : Part A
    Chapter #0:1: start 146.000000, end 246.000000
      Metadata:
        title           : OP
    Chapter #0:2: start 246.000000, end 631.000000
      Metadata:
        title           : Part B
    Chapter #0:3: start 631.000000, end 1302.000000
      Metadata:
        title           : Part C
    Chapter #0:4: start 1302.000000, end 1392.000000
      Metadata:
        title           : ED
    Chapter #0:5: start 1392.000000, end 1440.000000
      Metadata:
        title           : Preview
  Stream #0:0(jpn): Video: hevc (Main 10), yuv420p10le(tv, bt709, progressive), 1280x720 [SAR 1:1 DAR 16:9], 23.98 fps, 23.98 tbr, 1k tbn (default) (forced)
      Metadata:
        title           : [Ohys-Raws]
        ENCODER         : Lavc61.19.100 libx265
        BPS             : 487491
        DURATION        : 00:24:00.063708333
        NUMBER_OF_FRAMES: 34527
        NUMBER_OF_BYTES : 87752230
        _STATISTICS_WRITING_APP: mkvpropedit v66.0.0 ('Josie') 64-bit
        _STATISTICS_WRITING_DATE_UTC: 2025-06-23 10:06:42
        _STATISTICS_TAGS: BPS DURATION NUMBER_OF_FRAMES NUMBER_OF_BYTES
  Stream #0:1(rus): Audio: aac (LC), 48000 Hz, stereo, fltp (default) (forced)
      Metadata:
        title           : LeeAnnushka & Sharon
        ENCODER         : Lavc61.19.100 aac
        BPS             : 193547
        DURATION        : 00:24:00.042000000
        NUMBER_OF_FRAMES: 67503
        NUMBER_OF_BYTES : 34839632
        _STATISTICS_WRITING_APP: mkvpropedit v66.0.0 ('Josie') 64-bit
        _STATISTICS_WRITING_DATE_UTC: 2025-06-23 10:06:42
        _STATISTICS_TAGS: BPS DURATION NUMBER_OF_FRAMES NUMBER_OF_BYTES
  Stream #0:2(rus): Subtitle: ass (ssa) (default) (forced)
      Metadata:
        title           : Надписи
        BPS             : 3
        DURATION        : 00:21:12.240000000
        NUMBER_OF_FRAMES: 5
        NUMBER_OF_BYTES : 502
        _STATISTICS_WRITING_APP: mkvpropedit v66.0.0 ('Josie') 64-bit
        _STATISTICS_WRITING_DATE_UTC: 2025-06-23 10:06:42
        _STATISTICS_TAGS: BPS DURATION NUMBER_OF_FRAMES NUMBER_OF_BYTES
  Stream #0:3(rus): Subtitle: ass (ssa)
      Metadata:
        title           : Полные
        BPS             : 161
        DURATION        : 00:23:47.060000000
        NUMBER_OF_FRAMES: 376
        NUMBER_OF_BYTES : 28856
        _STATISTICS_WRITING_APP: mkvpropedit v66.0.0 ('Josie') 64-bit
        _STATISTICS_WRITING_DATE_UTC: 2025-06-23 10:06:42
        _STATISTICS_TAGS: BPS DURATION NUMBER_OF_FRAMES NUMBER_OF_BYTES
Input #1, matroska,webm, from 'G:\Аниме\[Топ-4]\Может, я встречу тебя в подземелье\ТВ-2\Danmachi_Sword_Oratoria_[02]_[AniLibria_TV]_[HDTV-Rip].mkv':
  Metadata:
    encoder         : libebml v1.4.2 + libmatroska v1.6.4
    creation_time   : 2025-01-14T16:50:59.000000Z
  Duration: 00:24:00.06, start: 0.000000, bitrate: 1685 kb/s
  Chapters:
    Chapter #1:0: start 0.000000, end 146.000000
      Metadata:
        title           : Part A
    Chapter #1:1: start 146.000000, end 246.000000
      Metadata:
        title           : OP
    Chapter #1:2: start 246.000000, end 631.000000
      Metadata:
        title           : Part B
    Chapter #1:3: start 631.000000, end 1302.000000
      Metadata:
        title           : Part C
    Chapter #1:4: start 1302.000000, end 1392.000000
      Metadata:
        title           : ED
    Chapter #1:5: start 1392.000000, end 1440.000000
      Metadata:
        title           : Preview
  Stream #1:0(jpn): Video: h264 (Main), yuv420p(tv, bt709, progressive), 1280x720, SAR 1:1 DAR 16:9, 23.98 fps, 23.98 tbr, 1k tbn (default) (forced)
      Metadata:
        title           : [Ohys-Raws]
        BPS             : 1490469
        DURATION        : 00:24:00.064000000
        NUMBER_OF_FRAMES: 34527
        NUMBER_OF_BYTES : 268296498
        _STATISTICS_WRITING_APP: mkvmerge v66.0.0 ('Josie') 64-bit
        _STATISTICS_WRITING_DATE_UTC: 2025-01-14 16:50:59
        _STATISTICS_TAGS: BPS DURATION NUMBER_OF_FRAMES NUMBER_OF_BYTES
  Stream #1:1(rus): Audio: aac (LC), 48000 Hz, stereo, fltp (default) (forced)
      Metadata:
        title           : LeeAnnushka & Sharon
        BPS             : 192093
        DURATION        : 00:24:00.042000000
        NUMBER_OF_FRAMES: 67502
        NUMBER_OF_BYTES : 34577813
        _STATISTICS_WRITING_APP: mkvmerge v66.0.0 ('Josie') 64-bit
        _STATISTICS_WRITING_DATE_UTC: 2025-01-14 16:50:59
        _STATISTICS_TAGS: BPS DURATION NUMBER_OF_FRAMES NUMBER_OF_BYTES
  Stream #1:2(rus): Subtitle: ass (ssa) (default) (forced)
      Metadata:
        title           : Надписи
        BPS             : 3
        DURATION        : 00:21:12.240000000
        NUMBER_OF_FRAMES: 5
        NUMBER_OF_BYTES : 502
        _STATISTICS_WRITING_APP: mkvmerge v66.0.0 ('Josie') 64-bit
        _STATISTICS_WRITING_DATE_UTC: 2025-01-14 16:50:59
        _STATISTICS_TAGS: BPS DURATION NUMBER_OF_FRAMES NUMBER_OF_BYTES
  Stream #1:3(rus): Subtitle: ass (ssa)
      Metadata:
        title           : Полные
        BPS             : 161
        DURATION        : 00:23:47.060000000
        NUMBER_OF_FRAMES: 376
        NUMBER_OF_BYTES : 28856
        _STATISTICS_WRITING_APP: mkvmerge v66.0.0 ('Josie') 64-bit
        _STATISTICS_WRITING_DATE_UTC: 2025-01-14 16:50:59
        _STATISTICS_TAGS: BPS DURATION NUMBER_OF_FRAMES NUMBER_OF_BYTES
Stream mapping:
  Stream #0:0 (hevc) -> settb:default
  Stream #1:0 (h264) -> settb:default
  psnr:default -> Stream #0:0 (wrapped_avframe)
  Stream #0:1 -> #0:1 (aac (native) -> pcm_s16le (native))
Output #0, null, to 'pipe:':
  Metadata:
    encoder         : Lavf61.7.100
  Chapters:
    Chapter #0:0: start 0.021000, end 146.021000
      Metadata:
        title           : Part A
    Chapter #0:1: start 146.021000, end 246.021000
      Metadata:
        title           : OP
    Chapter #0:2: start 246.021000, end 631.021000
      Metadata:
        title           : Part B
    Chapter #0:3: start 631.021000, end 1302.021000
      Metadata:
        title           : Part C
    Chapter #0:4: start 1302.021000, end 1392.021000
      Metadata:
        title           : ED
    Chapter #0:5: start 1392.021000, end 1440.021000
      Metadata:
        title           : Preview
  Stream #0:0: Video: wrapped_avframe, yuv420p10le(tv, bt709, progressive), 1280x720 [SAR 1:1 DAR 16:9], q=2-31, 200 kb/s, 23.98 fps, 23.98 tbn
      Metadata:
        encoder         : Lavc61.19.100 wrapped_avframe
  Stream #0:1(rus): Audio: pcm_s16le, 48000 Hz, stereo, s16, 1536 kb/s (default) (forced)
      Metadata:
        title           : LeeAnnushka & Sharon
        _STATISTICS_TAGS: BPS DURATION NUMBER_OF_FRAMES NUMBER_OF_BYTES
        BPS             : 193547
        DURATION        : 00:24:00.042000000
        NUMBER_OF_FRAMES: 67503
        NUMBER_OF_BYTES : 34839632
        _STATISTICS_WRITING_APP: mkvpropedit v66.0.0 ('Josie') 64-bit
        _STATISTICS_WRITING_DATE_UTC: 2025-06-23 10:06:42
        encoder         : Lavc61.19.100 pcm_s16le
frame=  513 fps=0.0 q=-0.0 size=N/A time=00:00:21.39 bitrate=N/A speed=41.4x    frame=  964 fps=928 q=-0.0 size=N/A time=00:00:40.20 bitrate=N/A speed=38.7x    frame= 1395 fps=902 q=-0.0 size=N/A time=00:00:58.18 bitrate=N/A speed=37.6x    frame= 1884 fps=909 q=-0.0 size=N/A time=00:01:18.57 bitrate=N/A speed=37.9x    frame= 2313 fps=895 q=-0.0 size=N/A time=00:01:36.47 bitrate=N/A speed=37.3x    frame= 2761 fps=893 q=-0.0 size=N/A time=00:01:55.15 bitrate=N/A speed=37.3x    frame= 3288 fps=909 q=-0.0 size=N/A time=00:02:17.13 bitrate=N/A speed=37.9x    frame= 3709 fps=898 q=-0.0 size=N/A time=00:02:34.69 bitrate=N/A speed=37.5x    frame= 4108 fps=885 q=-0.0 size=N/A time=00:02:51.33 bitrate=N/A speed=36.9x    frame= 4449 fps=861 q=-0.0 size=N/A time=00:03:05.56 bitrate=N/A speed=35.9x    frame= 4836 fps=852 q=-0.0 size=N/A time=00:03:21.70 bitrate=N/A speed=35.5x    frame= 5159 fps=832 q=-0.0 size=N/A time=00:03:35.17 bitrate=N/A speed=34.7x    frame= 5376 fps=801 q=-0.0 size=N/A time=00:03:44.22 bitrate=N/A speed=33.4x    frame= 5652 fps=783 q=-0.0 size=N/A time=00:03:55.73 bitrate=N/A speed=32.6x    frame= 6171 fps=797 q=-0.0 size=N/A time=00:04:17.38 bitrate=N/A speed=33.2x    frame= 6577 fps=797 q=-0.0 size=N/A time=00:04:34.31 bitrate=N/A speed=33.2x    frame= 7050 fps=804 q=-0.0 size=N/A time=00:04:54.04 bitrate=N/A speed=33.6x    frame= 7528 fps=810 q=-0.0 size=N/A time=00:05:13.98 bitrate=N/A speed=33.8x    frame= 8074 fps=824 q=-0.0 size=N/A time=00:05:36.75 bitrate=N/A speed=34.4x    frame= 8629 fps=836 q=-0.0 size=N/A time=00:05:59.90 bitrate=N/A speed=34.9x    frame= 9152 fps=845 q=-0.0 size=N/A time=00:06:21.71 bitrate=N/A speed=35.2x    frame= 9668 fps=852 q=-0.0 size=N/A time=00:06:43.23 bitrate=N/A speed=35.5x    frame=10200 fps=860 q=-0.0 size=N/A time=00:07:05.42 bitrate=N/A speed=35.9x    frame=10717 fps=866 q=-0.0 size=N/A time=00:07:26.98 bitrate=N/A speed=36.1x    frame=11304 fps=876 q=-0.0 size=N/A time=00:07:51.47 bitrate=N/A speed=36.5x    frame=11896 fps=887 q=-0.0 size=N/A time=00:08:16.16 bitrate=N/A speed=  37x    frame=12529 fps=900 q=-0.0 size=N/A time=00:08:42.56 bitrate=N/A speed=37.5x    frame=13104 fps=907 q=-0.0 size=N/A time=00:09:06.54 bitrate=N/A speed=37.8x    frame=13695 fps=916 q=-0.0 size=N/A time=00:09:31.19 bitrate=N/A speed=38.2x    frame=14305 fps=925 q=-0.0 size=N/A time=00:09:56.63 bitrate=N/A speed=38.6x    frame=14891 fps=931 q=-0.0 size=N/A time=00:10:21.07 bitrate=N/A speed=38.8x    frame=15327 fps=929 q=-0.0 size=N/A time=00:10:39.26 bitrate=N/A speed=38.7x    frame=15674 fps=921 q=-0.0 size=N/A time=00:10:53.73 bitrate=N/A speed=38.4x    frame=16222 fps=925 q=-0.0 size=N/A time=00:11:16.59 bitrate=N/A speed=38.6x    frame=16733 fps=927 q=-0.0 size=N/A time=00:11:37.90 bitrate=N/A speed=38.6x    frame=17215 fps=927 q=-0.0 size=N/A time=00:11:58.00 bitrate=N/A speed=38.7x    frame=17796 fps=932 q=-0.0 size=N/A time=00:12:22.24 bitrate=N/A speed=38.9x    frame=18379 fps=938 q=-0.0 size=N/A time=00:12:46.55 bitrate=N/A speed=39.1x    frame=18971 fps=943 q=-0.0 size=N/A time=00:13:11.24 bitrate=N/A speed=39.3x    frame=19559 fps=948 q=-0.0 size=N/A time=00:13:35.77 bitrate=N/A speed=39.5x    frame=20166 fps=954 q=-0.0 size=N/A time=00:14:01.13 bitrate=N/A speed=39.8x    frame=20667 fps=954 q=-0.0 size=N/A time=00:14:21.98 bitrate=N/A speed=39.8x    frame=21200 fps=956 q=-0.0 size=N/A time=00:14:44.21 bitrate=N/A speed=39.9x    frame=21827 fps=962 q=-0.0 size=N/A time=00:15:10.36 bitrate=N/A speed=40.1x    frame=22401 fps=965 q=-0.0 size=N/A time=00:15:34.30 bitrate=N/A speed=40.2x    frame=23001 fps=969 q=-0.0 size=N/A time=00:15:59.33 bitrate=N/A speed=40.4x    frame=23577 fps=972 q=-0.0 size=N/A time=00:16:23.35 bitrate=N/A speed=40.5x    frame=24191 fps=977 q=-0.0 size=N/A time=00:16:48.96 bitrate=N/A speed=40.7x    frame=24802 fps=981 q=-0.0 size=N/A time=00:17:14.45 bitrate=N/A speed=40.9x    frame=25354 fps=983 q=-0.0 size=N/A time=00:17:37.47 bitrate=N/A speed=  41x    frame=25959 fps=986 q=-0.0 size=N/A time=00:18:02.70 bitrate=N/A speed=41.1x    frame=26485 fps=987 q=-0.0 size=N/A time=00:18:24.64 bitrate=N/A speed=41.2x    frame=27080 fps=990 q=-0.0 size=N/A time=00:18:49.46 bitrate=N/A speed=41.3x    frame=27579 fps=990 q=-0.0 size=N/A time=00:19:10.27 bitrate=N/A speed=41.3x    frame=28145 fps=992 q=-0.0 size=N/A time=00:19:33.88 bitrate=N/A speed=41.4x    frame=28695 fps=993 q=-0.0 size=N/A time=00:19:56.82 bitrate=N/A speed=41.4x    frame=29276 fps=995 q=-0.0 size=N/A time=00:20:21.05 bitrate=N/A speed=41.5x    frame=29831 fps=997 q=-0.0 size=N/A time=00:20:44.20 bitrate=N/A speed=41.6x    frame=30447 fps=1000 q=-0.0 size=N/A time=00:21:09.89 bitrate=N/A speed=41.7x    frame=31036 fps=1002 q=-0.0 size=N/A time=00:21:34.45 bitrate=N/A speed=41.8x    frame=31556 fps=1003 q=-0.0 size=N/A time=00:21:56.14 bitrate=N/A speed=41.8x    frame=32036 fps=1002 q=-0.0 size=N/A time=00:22:16.16 bitrate=N/A speed=41.8x    frame=32476 fps=999 q=-0.0 size=N/A time=00:22:34.51 bitrate=N/A speed=41.7x    frame=32890 fps=996 q=-0.0 size=N/A time=00:22:51.78 bitrate=N/A speed=41.6x    frame=33388 fps=996 q=-0.0 size=N/A time=00:23:12.55 bitrate=N/A speed=41.5x    frame=33892 fps=995 q=-0.0 size=N/A time=00:23:33.57 bitrate=N/A speed=41.5x    frame=34413 fps=995 q=-0.0 size=N/A time=00:23:55.30 bitrate=N/A speed=41.5x    [Parsed_psnr_10 @ 000002aab0e5db00] PSNR y:46.883662 u:48.748534 v:48.958770 average:47.446214 min:39.635433 max:60.271569
[out#0/null @ 000002aaa4f6eec0] video:14836KiB audio:270012KiB subtitle:0KiB other streams:0KiB global headers:0KiB muxing overhead: unknown
frame=34527 fps=996 q=-0.0 Lsize=N/A time=00:24:00.06 bitrate=N/A speed=41.6x    
